<svg xmlns="http://www.w3.org/2000/svg" xmlns:xlink="http://www.w3.org/1999/xlink" width="500" zoomAndPan="magnify" viewBox="0 0 375 374.999991" height="500" preserveAspectRatio="xMidYMid meet" version="1.0"><defs><g/><clipPath id="547d3288a3"><path d="M 175 228.359375 L 198.945312 228.359375 L 198.945312 237.9375 L 175 237.9375 Z M 175 228.359375 " clip-rule="nonzero"/></clipPath><clipPath id="767fe4bd70"><path d="M 123.550781 69.785156 L 185 69.785156 L 185 172 L 123.550781 172 Z M 123.550781 69.785156 " clip-rule="nonzero"/></clipPath><clipPath id="e5a97d5666"><path d="M 189 69.785156 L 250.105469 69.785156 L 250.105469 171.726562 L 189 171.726562 Z M 189 69.785156 " clip-rule="nonzero"/></clipPath></defs><path fill="#f1465f" d="M 204.703125 203.125 C 204.703125 205.480469 202.789062 207.398438 200.429688 207.398438 L 173.53125 207.398438 C 171.171875 207.398438 169.261719 205.480469 169.261719 203.125 C 169.261719 200.757812 171.171875 198.84375 173.53125 198.84375 L 200.429688 198.84375 C 202.789062 198.84375 204.703125 200.757812 204.703125 203.125 " fill-opacity="1" fill-rule="nonzero"/><path fill="#f1465f" d="M 204.703125 213.542969 C 204.703125 215.90625 202.789062 217.820312 200.429688 217.820312 L 173.53125 217.820312 C 171.171875 217.820312 169.261719 215.90625 169.261719 213.542969 C 169.261719 211.183594 171.171875 209.265625 173.53125 209.265625 L 200.429688 209.265625 C 202.789062 209.265625 204.703125 211.183594 204.703125 213.542969 " fill-opacity="1" fill-rule="nonzero"/><path fill="#f1465f" d="M 202.273438 223.378906 C 202.273438 225.414062 200.628906 227.070312 198.589844 227.070312 L 175.371094 227.070312 C 173.335938 227.070312 171.683594 225.414062 171.683594 223.378906 C 171.683594 221.339844 173.335938 219.6875 175.371094 219.6875 L 198.589844 219.6875 C 200.628906 219.6875 202.273438 221.339844 202.273438 223.378906 " fill-opacity="1" fill-rule="nonzero"/><g clip-path="url(#547d3288a3)"><path fill="#f1465f" d="M 175.25 228.9375 C 175.25 233.921875 180.5 237.964844 186.980469 237.964844 C 193.460938 237.964844 198.714844 233.921875 198.714844 228.9375 L 175.25 228.9375 " fill-opacity="1" fill-rule="nonzero"/></g><g clip-path="url(#767fe4bd70)"><path fill="#f1465f" d="M 152.558594 167.28125 C 145.496094 167.28125 139.671875 161.917969 138.925781 155.050781 C 140.503906 155.5 142.167969 155.757812 143.890625 155.757812 C 145.660156 155.757812 147.367188 155.492188 148.980469 155.015625 C 149.96875 159.84375 152.878906 163.972656 156.867188 166.578125 C 155.511719 167.027344 154.0625 167.28125 152.558594 167.28125 Z M 130.171875 137.613281 C 130.171875 134.878906 130.984375 132.332031 132.371094 130.1875 C 135.160156 131.945312 138.445312 132.976562 141.976562 132.976562 C 143.441406 132.976562 144.855469 132.78125 146.21875 132.453125 C 145.726562 133.878906 145.40625 135.382812 145.285156 136.945312 C 140.492188 139.054688 136.773438 143.179688 135.222656 148.246094 C 132.144531 145.730469 130.171875 141.894531 130.171875 137.613281 Z M 150.488281 125.582031 C 148.144531 127.441406 145.191406 128.5625 141.976562 128.5625 C 139.585938 128.5625 137.339844 127.941406 135.378906 126.863281 C 137.722656 125.003906 140.675781 123.882812 143.890625 123.882812 C 146.277344 123.882812 148.527344 124.5 150.488281 125.582031 Z M 134.933594 103.074219 C 136.320312 108.9375 140.554688 113.699219 146.09375 115.828125 C 146.570312 117.304688 147.238281 118.691406 148.058594 119.976562 C 146.714844 119.65625 145.324219 119.472656 143.890625 119.472656 C 139.273438 119.472656 135.066406 121.222656 131.863281 124.078125 C 129.632812 121.632812 128.257812 118.398438 128.257812 114.835938 C 128.257812 109.84375 130.945312 105.476562 134.933594 103.074219 Z M 148.765625 85.707031 C 148.675781 86.4375 148.617188 87.171875 148.617188 87.925781 C 148.617188 91.214844 149.507812 94.296875 151.046875 96.964844 C 150.550781 97.421875 150.078125 97.898438 149.636719 98.410156 C 147.304688 97.316406 144.71875 96.6875 141.976562 96.6875 C 140.957031 96.6875 139.964844 96.792969 138.992188 96.957031 C 139.753906 91.570312 143.644531 87.1875 148.765625 85.707031 Z M 166.738281 74.191406 C 174.304688 74.191406 180.457031 80.355469 180.457031 87.925781 L 180.457031 104.351562 C 178.707031 99.285156 174.78125 95.242188 169.796875 93.328125 C 167.683594 86.777344 161.945312 81.863281 154.957031 80.929688 C 157.351562 76.902344 161.730469 74.191406 166.738281 74.191406 Z M 166.738281 165.109375 C 166.664062 165.109375 166.597656 165.101562 166.523438 165.097656 C 168.835938 162.300781 170.308594 158.800781 170.605469 154.972656 C 175.207031 152.945312 178.800781 149.058594 180.457031 144.269531 L 180.457031 151.375 C 180.457031 158.945312 174.304688 165.109375 166.738281 165.109375 Z M 152.558594 139.820312 C 154.210938 139.820312 155.785156 140.128906 157.25 140.664062 C 156.632812 143.382812 155.210938 145.789062 153.246094 147.628906 C 151.371094 145.59375 150.109375 142.996094 149.746094 140.113281 C 150.652344 139.921875 151.59375 139.820312 152.558594 139.820312 Z M 154.003906 128.371094 C 155.917969 130.464844 157.199219 133.144531 157.519531 136.117188 C 155.941406 135.664062 154.28125 135.410156 152.558594 135.410156 C 151.648438 135.410156 150.765625 135.496094 149.894531 135.625 C 150.425781 133.023438 151.695312 130.695312 153.464844 128.851562 C 153.652344 128.699219 153.824219 128.53125 154.003906 128.371094 Z M 170.71875 121.808594 C 168.460938 120.800781 165.964844 120.21875 163.335938 120.21875 C 161.871094 120.21875 160.457031 120.414062 159.09375 120.742188 C 159.679688 119.054688 160.019531 117.253906 160.074219 115.386719 C 166.320312 112.515625 170.679688 106.214844 170.679688 98.894531 C 170.679688 98.820312 170.667969 98.75 170.667969 98.671875 C 174.496094 101.109375 177.050781 105.386719 177.050781 110.257812 C 177.050781 115.109375 174.519531 119.367188 170.71875 121.808594 Z M 174.78125 124.3125 C 177.367188 122.199219 179.34375 119.382812 180.457031 116.160156 L 180.457031 132.460938 C 179.34375 129.238281 177.367188 126.421875 174.78125 124.3125 Z M 166.148438 151.804688 C 165.238281 151.992188 164.296875 152.097656 163.335938 152.097656 C 160.945312 152.097656 158.699219 151.476562 156.738281 150.394531 C 158.789062 148.328125 160.34375 145.773438 161.222656 142.917969 C 163.871094 145.089844 165.6875 148.234375 166.148438 151.804688 Z M 170.347656 150.140625 C 169.375 145.046875 166.261719 140.714844 161.992188 138.085938 C 161.996094 137.929688 162.015625 137.773438 162.015625 137.613281 C 162.015625 134.035156 160.964844 130.710938 159.171875 127.898438 C 160.507812 128.214844 161.898438 128.402344 163.335938 128.402344 C 165.964844 128.402344 168.460938 127.828125 170.71875 126.8125 C 174.519531 129.253906 177.050781 133.515625 177.050781 138.363281 C 177.050781 143.367188 174.355469 147.746094 170.347656 150.140625 Z M 163.335938 96.527344 C 164.277344 96.527344 165.203125 96.625 166.09375 96.804688 C 166.199219 97.488281 166.273438 98.183594 166.273438 98.894531 C 166.273438 99.828125 166.175781 100.738281 166 101.621094 C 162.664062 101.441406 159.644531 100.066406 157.363281 97.917969 C 159.171875 97.035156 161.191406 96.527344 163.335938 96.527344 Z M 153.023438 87.925781 C 153.023438 86.992188 153.121094 86.082031 153.296875 85.203125 C 158.105469 85.460938 162.265625 88.203125 164.503906 92.175781 C 164.113281 92.148438 163.726562 92.117188 163.335938 92.117188 C 160.179688 92.117188 157.214844 92.929688 154.625 94.351562 C 153.605469 92.433594 153.023438 90.246094 153.023438 87.925781 Z M 153.703125 100.5 C 156.476562 103.378906 160.183594 105.335938 164.335938 105.890625 C 163.171875 107.847656 161.546875 109.484375 159.597656 110.660156 C 158.664062 106.71875 156.464844 103.269531 153.429688 100.785156 C 153.523438 100.691406 153.605469 100.589844 153.703125 100.5 Z M 145.222656 110.480469 C 142.070312 108.476562 139.789062 105.222656 139.082031 101.414062 C 140.015625 101.214844 140.984375 101.101562 141.976562 101.101562 C 143.808594 101.101562 145.558594 101.46875 147.15625 102.125 C 145.921875 104.574219 145.210938 107.332031 145.210938 110.257812 C 145.210938 110.332031 145.21875 110.40625 145.222656 110.480469 Z M 149.621094 110.257812 C 149.621094 108.175781 150.097656 106.214844 150.925781 104.449219 C 153.234375 106.445312 154.871094 109.191406 155.449219 112.3125 C 154.519531 112.511719 153.550781 112.625 152.558594 112.625 C 151.609375 112.625 150.6875 112.535156 149.796875 112.347656 C 149.6875 111.664062 149.621094 110.96875 149.621094 110.257812 Z M 151.386719 116.980469 C 151.777344 117.007812 152.164062 117.039062 152.558594 117.039062 C 153.574219 117.039062 154.566406 116.933594 155.539062 116.773438 C 155.347656 118.136719 154.953125 119.4375 154.390625 120.640625 C 153.191406 119.605469 152.171875 118.371094 151.386719 116.980469 Z M 145.542969 141.773438 C 146.140625 144.914062 147.550781 147.765625 149.546875 150.109375 C 147.820312 150.894531 145.90625 151.34375 143.890625 151.34375 C 142.234375 151.34375 140.660156 151.035156 139.191406 150.5 C 140.035156 146.796875 142.375 143.671875 145.542969 141.773438 Z M 153.1875 153.386719 C 156.085938 155.355469 159.578125 156.507812 163.335938 156.507812 C 164.242188 156.507812 165.121094 156.421875 165.996094 156.289062 C 165.371094 159.371094 163.710938 162.066406 161.402344 164.027344 C 157.078125 162.191406 153.894531 158.1875 153.1875 153.386719 Z M 166.738281 169.523438 C 176.730469 169.523438 184.863281 161.378906 184.863281 151.375 L 184.863281 87.925781 C 184.863281 77.921875 176.730469 69.78125 166.738281 69.78125 C 159.210938 69.78125 152.746094 74.398438 150.011719 80.949219 C 141.398438 82.167969 134.726562 89.457031 134.457031 98.347656 C 128.210938 101.210938 123.851562 107.515625 123.851562 114.835938 C 123.851562 119.707031 125.792969 124.128906 128.925781 127.390625 C 126.933594 130.304688 125.765625 133.824219 125.765625 137.613281 C 125.765625 144.15625 129.253906 149.882812 134.457031 153.078125 C 134.449219 153.234375 134.429688 153.390625 134.429688 153.554688 C 134.429688 163.554688 142.558594 171.695312 152.558594 171.695312 C 156.085938 171.695312 159.367188 170.664062 162.15625 168.910156 C 163.625 169.296875 165.15625 169.523438 166.738281 169.523438 " fill-opacity="1" fill-rule="nonzero"/></g><g clip-path="url(#e5a97d5666)"><path fill="#f1465f" d="M 238.738281 148.246094 C 237.1875 143.179688 233.472656 139.050781 228.679688 136.941406 C 228.558594 135.378906 228.234375 133.878906 227.742188 132.453125 C 229.105469 132.78125 230.523438 132.976562 231.984375 132.976562 C 235.515625 132.976562 238.804688 131.945312 241.597656 130.1875 C 242.980469 132.332031 243.789062 134.878906 243.789062 137.613281 C 243.789062 141.894531 241.816406 145.730469 238.738281 148.246094 Z M 221.410156 167.28125 C 219.902344 167.28125 218.453125 167.027344 217.09375 166.578125 C 221.082031 163.972656 223.996094 159.84375 224.980469 155.015625 C 226.601562 155.492188 228.304688 155.757812 230.070312 155.757812 C 231.796875 155.757812 233.460938 155.5 235.039062 155.050781 C 234.292969 161.917969 228.464844 167.28125 221.410156 167.28125 Z M 193.507812 151.375 L 193.507812 144.273438 C 195.164062 149.0625 198.753906 152.945312 203.355469 154.972656 C 203.652344 158.800781 205.128906 162.300781 207.4375 165.097656 C 207.367188 165.101562 207.296875 165.109375 207.226562 165.109375 C 199.664062 165.109375 193.507812 158.945312 193.507812 151.375 Z M 207.226562 74.191406 C 212.234375 74.191406 216.609375 76.902344 219.007812 80.929688 C 212.019531 81.863281 206.28125 86.777344 204.164062 93.328125 C 199.179688 95.242188 195.257812 99.285156 193.507812 104.347656 L 193.507812 87.925781 C 193.507812 80.355469 199.664062 74.191406 207.226562 74.191406 Z M 234.96875 96.957031 C 233.996094 96.792969 233 96.6875 231.984375 96.6875 C 229.246094 96.6875 226.652344 97.316406 224.320312 98.410156 C 223.882812 97.902344 223.410156 97.421875 222.914062 96.964844 C 224.453125 94.296875 225.347656 91.214844 225.347656 87.925781 C 225.347656 87.171875 225.285156 86.4375 225.199219 85.707031 C 230.316406 87.183594 234.203125 91.570312 234.96875 96.957031 Z M 238.582031 126.863281 C 236.621094 127.941406 234.375 128.5625 231.984375 128.5625 C 228.769531 128.5625 225.816406 127.441406 223.472656 125.582031 C 225.433594 124.503906 227.679688 123.882812 230.070312 123.882812 C 233.285156 123.882812 236.238281 125.003906 238.582031 126.863281 Z M 245.703125 114.835938 C 245.703125 118.394531 244.328125 121.632812 242.097656 124.078125 C 238.894531 121.222656 234.6875 119.472656 230.070312 119.472656 C 228.636719 119.472656 227.246094 119.65625 225.90625 119.976562 C 226.726562 118.691406 227.390625 117.304688 227.867188 115.828125 C 233.40625 113.703125 237.636719 108.9375 239.027344 103.074219 C 243.019531 105.476562 245.703125 109.84375 245.703125 114.835938 Z M 221.410156 135.410156 C 219.683594 135.410156 218.023438 135.664062 216.4375 136.117188 C 216.765625 133.144531 218.046875 130.464844 219.957031 128.371094 C 220.140625 128.53125 220.3125 128.699219 220.496094 128.851562 C 222.269531 130.695312 223.539062 133.023438 224.066406 135.625 C 223.195312 135.496094 222.3125 135.410156 221.410156 135.410156 Z M 220.71875 147.628906 C 218.753906 145.789062 217.328125 143.382812 216.707031 140.664062 C 218.179688 140.128906 219.757812 139.820312 221.410156 139.820312 C 222.375 139.820312 223.308594 139.921875 224.21875 140.109375 C 223.851562 142.992188 222.585938 145.59375 220.71875 147.628906 Z M 212.742188 142.917969 C 213.613281 145.773438 215.171875 148.328125 217.222656 150.394531 C 215.265625 151.476562 213.015625 152.097656 210.628906 152.097656 C 209.664062 152.097656 208.722656 151.992188 207.816406 151.804688 C 208.273438 148.234375 210.089844 145.089844 212.742188 142.917969 Z M 199.179688 124.3125 C 196.597656 126.421875 194.621094 129.238281 193.507812 132.453125 L 193.507812 116.167969 C 194.621094 119.382812 196.597656 122.199219 199.179688 124.3125 Z M 213.886719 115.386719 C 213.941406 117.253906 214.28125 119.054688 214.867188 120.742188 C 213.503906 120.414062 212.089844 120.21875 210.628906 120.21875 C 207.996094 120.21875 205.5 120.800781 203.242188 121.808594 C 199.4375 119.367188 196.910156 115.109375 196.910156 110.257812 C 196.910156 105.386719 199.460938 101.109375 203.296875 98.671875 C 203.296875 98.75 203.28125 98.820312 203.28125 98.894531 C 203.28125 106.214844 207.644531 112.515625 213.886719 115.386719 Z M 210.628906 96.527344 C 212.769531 96.527344 214.792969 97.039062 216.597656 97.921875 C 214.316406 100.066406 211.300781 101.441406 207.964844 101.621094 C 207.789062 100.738281 207.691406 99.828125 207.691406 98.894531 C 207.691406 98.183594 207.761719 97.488281 207.867188 96.804688 C 208.761719 96.625 209.679688 96.527344 210.628906 96.527344 Z M 219.574219 120.640625 C 219.007812 119.4375 218.617188 118.136719 218.417969 116.773438 C 219.394531 116.933594 220.386719 117.039062 221.410156 117.039062 C 221.804688 117.039062 222.183594 117.007812 222.570312 116.980469 C 221.789062 118.371094 220.769531 119.605469 219.574219 120.640625 Z M 226.804688 102.125 C 228.40625 101.46875 230.152344 101.101562 231.984375 101.101562 C 232.976562 101.101562 233.945312 101.214844 234.882812 101.414062 C 234.171875 105.226562 231.890625 108.476562 228.738281 110.480469 C 228.738281 110.40625 228.75 110.332031 228.75 110.257812 C 228.75 107.332031 228.039062 104.574219 226.804688 102.125 Z M 224.34375 110.257812 C 224.34375 110.96875 224.269531 111.664062 224.164062 112.347656 C 223.273438 112.535156 222.351562 112.625 221.410156 112.625 C 220.414062 112.625 219.445312 112.511719 218.507812 112.3125 C 219.089844 109.191406 220.726562 106.445312 223.035156 104.449219 C 223.863281 106.214844 224.34375 108.175781 224.34375 110.257812 Z M 220.527344 100.785156 C 217.5 103.269531 215.296875 106.71875 214.363281 110.65625 C 212.417969 109.484375 210.789062 107.847656 209.628906 105.890625 C 213.777344 105.335938 217.488281 103.378906 220.261719 100.5 C 220.351562 100.589844 220.441406 100.691406 220.527344 100.785156 Z M 220.9375 87.925781 C 220.9375 90.246094 220.355469 92.433594 219.335938 94.355469 C 216.746094 92.929688 213.78125 92.117188 210.628906 92.117188 C 210.230469 92.117188 209.847656 92.148438 209.457031 92.175781 C 211.695312 88.203125 215.855469 85.464844 220.664062 85.203125 C 220.84375 86.082031 220.9375 86.992188 220.9375 87.925781 Z M 196.910156 138.363281 C 196.910156 133.515625 199.4375 129.253906 203.242188 126.8125 C 205.5 127.828125 207.996094 128.402344 210.628906 128.402344 C 212.0625 128.402344 213.449219 128.214844 214.792969 127.898438 C 213 130.710938 211.945312 134.035156 211.945312 137.613281 C 211.945312 137.773438 211.964844 137.929688 211.96875 138.089844 C 207.699219 140.714844 204.585938 145.046875 203.613281 150.140625 C 199.605469 147.746094 196.910156 143.367188 196.910156 138.363281 Z M 212.5625 164.027344 C 210.25 162.066406 208.589844 159.371094 207.96875 156.289062 C 208.835938 156.421875 209.71875 156.507812 210.628906 156.507812 C 214.386719 156.507812 217.878906 155.355469 220.773438 153.386719 C 220.066406 158.1875 216.886719 162.191406 212.5625 164.027344 Z M 234.769531 150.5 C 233.304688 151.035156 231.722656 151.34375 230.070312 151.34375 C 228.054688 151.34375 226.140625 150.894531 224.414062 150.109375 C 226.410156 147.765625 227.816406 144.914062 228.417969 141.773438 C 231.582031 143.667969 233.925781 146.796875 234.769531 150.5 Z M 250.109375 114.835938 C 250.109375 107.515625 245.75 101.210938 239.503906 98.347656 C 239.238281 89.457031 232.5625 82.167969 223.953125 80.949219 C 221.214844 74.398438 214.75 69.78125 207.226562 69.78125 C 197.230469 69.78125 189.097656 77.921875 189.097656 87.925781 L 189.097656 151.375 C 189.097656 161.378906 197.230469 169.523438 207.226562 169.523438 C 208.8125 169.523438 210.339844 169.296875 211.804688 168.910156 C 214.59375 170.664062 217.882812 171.695312 221.410156 171.695312 C 231.402344 171.695312 239.53125 163.554688 239.53125 153.554688 C 239.53125 153.390625 239.511719 153.234375 239.507812 153.078125 C 244.710938 149.882812 248.199219 144.15625 248.199219 137.613281 C 248.199219 133.824219 247.027344 130.304688 245.035156 127.390625 C 248.171875 124.128906 250.109375 119.707031 250.109375 114.835938 " fill-opacity="1" fill-rule="nonzero"/></g><path fill="#f1465f" d="M 173.582031 190.375 C 173.402344 189.605469 173.261719 188.761719 172.890625 187.976562 C 172.304688 186.339844 171.351562 184.710938 170.191406 183.265625 C 169.027344 181.824219 167.65625 180.574219 166.253906 179.597656 C 164.847656 178.625 163.4375 177.886719 162.175781 177.414062 C 159.660156 176.402344 157.828125 176.367188 157.828125 176.367188 C 157.828125 176.367188 159.308594 177.394531 161.304688 178.957031 C 162.300781 179.746094 163.417969 180.683594 164.550781 181.726562 C 165.648438 182.796875 166.820312 183.925781 167.777344 185.207031 C 168.304688 185.820312 168.789062 186.457031 169.195312 187.132812 C 169.648438 187.777344 170.046875 188.441406 170.402344 189.109375 C 171.113281 190.433594 171.734375 191.742188 172.125 192.921875 C 172.59375 194.09375 172.871094 195.128906 173.078125 195.863281 C 173.304688 196.601562 173.460938 197.035156 173.460938 197.035156 C 173.460938 197.035156 173.566406 196.609375 173.691406 195.832031 C 173.828125 195.054688 174.003906 193.929688 173.871094 192.566406 C 173.855469 191.878906 173.792969 191.132812 173.582031 190.375 " fill-opacity="1" fill-rule="nonzero"/><path fill="#f1465f" d="M 207.707031 179.597656 C 206.304688 180.574219 204.933594 181.824219 203.765625 183.265625 C 202.613281 184.710938 201.660156 186.339844 201.074219 187.976562 C 200.699219 188.761719 200.554688 189.605469 200.382812 190.375 C 200.167969 191.132812 200.105469 191.878906 200.09375 192.566406 C 199.957031 193.929688 200.128906 195.054688 200.269531 195.832031 C 200.398438 196.609375 200.503906 197.035156 200.503906 197.035156 C 200.503906 197.035156 200.660156 196.601562 200.882812 195.863281 C 201.09375 195.128906 201.371094 194.09375 201.835938 192.921875 C 202.226562 191.742188 202.84375 190.433594 203.558594 189.109375 C 203.914062 188.441406 204.3125 187.777344 204.765625 187.132812 C 205.167969 186.457031 205.65625 185.820312 206.179688 185.207031 C 207.140625 183.925781 208.308594 182.796875 209.410156 181.726562 C 210.542969 180.683594 211.660156 179.746094 212.65625 178.957031 C 214.65625 177.394531 216.132812 176.367188 216.132812 176.367188 C 216.132812 176.367188 214.300781 176.402344 211.785156 177.414062 C 210.523438 177.886719 209.109375 178.625 207.707031 179.597656 " fill-opacity="1" fill-rule="nonzero"/><path fill="#f1465f" d="M 192.917969 179.265625 L 192.917969 176.03125 C 192.917969 175.375 193.0625 174.867188 193.339844 174.570312 C 193.574219 174.316406 193.875 174.261719 194.082031 174.261719 C 194.679688 174.261719 195.5625 174.734375 195.5625 176.03125 C 195.5625 177.65625 194.480469 178.660156 192.917969 179.265625 Z M 181.042969 179.265625 C 179.480469 178.660156 178.394531 177.65625 178.394531 176.03125 C 178.394531 174.734375 179.28125 174.261719 179.878906 174.261719 C 180.085938 174.261719 180.382812 174.316406 180.621094 174.570312 C 180.898438 174.867188 181.042969 175.375 181.042969 176.03125 Z M 194.082031 171.160156 C 192.917969 171.160156 191.847656 171.617188 191.070312 172.453125 C 190.496094 173.070312 189.8125 174.191406 189.8125 176.03125 L 189.8125 179.960938 C 187.9375 180.167969 186.023438 180.167969 184.144531 179.960938 L 184.144531 176.03125 C 184.144531 174.191406 183.464844 173.070312 182.890625 172.453125 C 182.109375 171.617188 181.042969 171.160156 179.878906 171.160156 C 177.628906 171.160156 175.292969 172.980469 175.292969 176.03125 C 175.292969 178.066406 176.167969 181.148438 181.042969 182.515625 L 181.042969 196.167969 L 184.144531 196.167969 L 184.144531 183.078125 C 185.863281 183.246094 188.09375 183.25 189.8125 183.078125 L 189.8125 196.167969 L 192.917969 196.167969 L 192.917969 182.515625 C 197.789062 181.148438 198.667969 178.066406 198.667969 176.03125 C 198.667969 172.980469 196.335938 171.160156 194.082031 171.160156 " fill-opacity="1" fill-rule="nonzero"/><g fill="#2b2b2b" fill-opacity="1"><g transform="translate(40.980225, 294.587868)"><g><path d="M 9.332031 0 L 9.332031 -33.585938 L 2.992188 -33.585938 L 2.992188 0 Z M 9.332031 0 "/></g></g></g><g fill="#2b2b2b" fill-opacity="1"><g transform="translate(62.110465, 294.587868)"><g><path d="M 12.765625 0 C 24.078125 0 30.328125 -6.03125 30.328125 -16.773438 C 30.328125 -27.558594 24.125 -33.585938 12.765625 -33.585938 L 2.992188 -33.585938 L 2.992188 0 Z M 9.332031 -27.910156 L 12.722656 -27.910156 C 19.5 -27.910156 23.992188 -24.5625 23.992188 -16.773438 C 23.992188 -8.453125 19.367188 -5.679688 12.679688 -5.679688 L 9.332031 -5.679688 Z M 9.332031 -27.910156 "/></g></g></g><g fill="#2b2b2b" fill-opacity="1"><g transform="translate(102.961452, 294.587868)"><g><path d="M 25.398438 0 L 25.398438 -5.679688 L 9.332031 -5.679688 L 9.332031 -14 L 23.726562 -14 L 23.726562 -19.632812 L 9.332031 -19.632812 L 9.332031 -27.910156 L 25.398438 -27.910156 L 25.398438 -33.585938 L 2.992188 -33.585938 L 2.992188 0 Z M 25.398438 0 "/></g></g></g><g fill="#2b2b2b" fill-opacity="1"><g transform="translate(139.102359, 294.587868)"><g><path d="M 6.957031 0 L 9.199219 -6.910156 L 22.011719 -6.910156 L 24.300781 0 L 30.945312 0 L 19.105469 -33.585938 L 12.148438 -33.585938 L 0.308594 0 Z M 15.628906 -26.675781 L 20.25 -12.457031 L 11.003906 -12.457031 Z M 15.628906 -26.675781 "/></g></g></g><g fill="#2b2b2b" fill-opacity="1"><g transform="translate(179.161001, 294.587868)"><g><path d="M 16.332031 0.617188 C 24.253906 0.617188 28.878906 -3.390625 28.878906 -9.726562 C 28.878906 -17.34375 22.230469 -18.839844 16.640625 -20.074219 C 12.546875 -20.996094 8.9375 -21.789062 8.9375 -24.871094 C 8.9375 -27.425781 11.226562 -28.789062 14.394531 -28.789062 C 17.828125 -28.789062 20.691406 -27.160156 21.527344 -23.59375 L 27.996094 -23.59375 C 26.941406 -30.859375 20.996094 -34.203125 14.527344 -34.203125 C 7.746094 -34.203125 2.640625 -30.8125 2.640625 -24.34375 C 2.640625 -17.257812 8.890625 -15.890625 14.394531 -14.660156 C 18.664062 -13.734375 22.496094 -12.898438 22.496094 -9.421875 C 22.496094 -6.207031 19.851562 -4.796875 16.375 -4.796875 C 12.855469 -4.796875 9.199219 -6.117188 8.101562 -10.917969 L 1.539062 -10.917969 C 2.378906 -2.246094 9.859375 0.617188 16.332031 0.617188 Z M 16.332031 0.617188 "/></g></g></g><g fill="#2b2b2b" fill-opacity="1"><g transform="translate(218.603357, 294.587868)"><g><path d="M 18.753906 0 L 18.753906 -13.160156 L 30.945312 -33.585938 L 23.59375 -33.585938 L 15.40625 -19.324219 L 7.261719 -33.585938 L -0.132812 -33.585938 L 12.105469 -13.160156 L 12.105469 0 Z M 18.753906 0 "/></g></g></g><g fill="#2b2b2b" fill-opacity="1"><g transform="translate(258.221792, 294.587868)"><g><path d="M 9.332031 0 L 9.332031 -24.078125 L 23.066406 0 L 30.242188 0 L 30.242188 -33.585938 L 23.902344 -33.585938 L 23.902344 -9.550781 L 10.125 -33.585938 L 2.992188 -33.585938 L 2.992188 0 Z M 9.332031 0 "/></g></g></g><g fill="#2b2b2b" fill-opacity="1"><g transform="translate(300.261312, 294.587868)"><g><path d="M 18.003906 0.617188 C 26.28125 0.617188 31.34375 -3.960938 32.265625 -10.917969 L 25.355469 -10.917969 C 24.695312 -6.957031 21.789062 -5.0625 17.828125 -5.0625 C 11.664062 -5.0625 8.320312 -9.816406 8.320312 -16.816406 C 8.320312 -23.769531 11.664062 -28.523438 17.828125 -28.523438 C 21.789062 -28.523438 24.738281 -26.632812 25.355469 -23.066406 L 32.265625 -23.066406 C 31.34375 -29.667969 26.28125 -34.203125 18.003906 -34.203125 C 6.867188 -34.203125 1.714844 -26.105469 1.714844 -16.816406 C 1.714844 -7.527344 6.867188 0.617188 18.003906 0.617188 Z M 18.003906 0.617188 "/></g></g></g></svg>