<svg xmlns="http://www.w3.org/2000/svg" xmlns:xlink="http://www.w3.org/1999/xlink" width="500" zoomAndPan="magnify" viewBox="0 0 375 374.999991" height="500" preserveAspectRatio="xMidYMid meet" version="1.0"><defs><clipPath id="2f214428f4"><path d="M 166 321 L 209 321 L 209 337.710938 L 166 337.710938 Z M 166 321 " clip-rule="nonzero"/></clipPath><clipPath id="65079fd4ea"><path d="M 73 33.960938 L 184 33.960938 L 184 219 L 73 219 Z M 73 33.960938 " clip-rule="nonzero"/></clipPath><clipPath id="e41dc2ffdf"><path d="M 191 33.960938 L 301.9375 33.960938 L 301.9375 218.109375 L 191 218.109375 Z M 191 33.960938 " clip-rule="nonzero"/></clipPath></defs><path fill="#f1465f" d="M 219.769531 274.828125 C 219.769531 279.085938 216.308594 282.550781 212.039062 282.550781 L 163.367188 282.550781 C 159.097656 282.550781 155.636719 279.085938 155.636719 274.828125 C 155.636719 270.554688 159.097656 267.09375 163.367188 267.09375 L 212.039062 267.09375 C 216.308594 267.09375 219.769531 270.554688 219.769531 274.828125 " fill-opacity="1" fill-rule="nonzero"/><path fill="#f1465f" d="M 219.769531 293.644531 C 219.769531 297.917969 216.308594 301.375 212.039062 301.375 L 163.367188 301.375 C 159.097656 301.375 155.636719 297.917969 155.636719 293.644531 C 155.636719 289.386719 159.097656 285.921875 163.367188 285.921875 L 212.039062 285.921875 C 216.308594 285.921875 219.769531 289.386719 219.769531 293.644531 " fill-opacity="1" fill-rule="nonzero"/><path fill="#f1465f" d="M 215.378906 311.417969 C 215.378906 315.09375 212.398438 318.082031 208.710938 318.082031 L 166.695312 318.082031 C 163.011719 318.082031 160.019531 315.09375 160.019531 311.417969 C 160.019531 307.734375 163.011719 304.746094 166.695312 304.746094 L 208.710938 304.746094 C 212.398438 304.746094 215.378906 307.734375 215.378906 311.417969 " fill-opacity="1" fill-rule="nonzero"/><g clip-path="url(#2f214428f4)"><path fill="#f1465f" d="M 166.472656 321.460938 C 166.472656 330.460938 175.976562 337.765625 187.703125 337.765625 C 199.433594 337.765625 208.9375 330.460938 208.9375 321.460938 L 166.472656 321.460938 " fill-opacity="1" fill-rule="nonzero"/></g><g clip-path="url(#65079fd4ea)"><path fill="#f1465f" d="M 125.410156 210.078125 C 112.632812 210.078125 102.089844 200.394531 100.738281 187.984375 C 103.597656 188.796875 106.605469 189.261719 109.726562 189.261719 C 112.925781 189.261719 116.015625 188.785156 118.9375 187.925781 C 120.726562 196.644531 125.992188 204.101562 133.210938 208.808594 C 130.753906 209.621094 128.136719 210.078125 125.410156 210.078125 Z M 84.902344 156.488281 C 84.902344 151.546875 86.371094 146.945312 88.878906 143.074219 C 93.925781 146.25 99.871094 148.109375 106.265625 148.109375 C 108.910156 148.109375 111.46875 147.761719 113.9375 147.164062 C 113.046875 149.742188 112.464844 152.460938 112.25 155.28125 C 103.574219 159.09375 96.847656 166.542969 94.042969 175.699219 C 88.472656 171.148438 84.902344 164.226562 84.902344 156.488281 Z M 121.664062 134.753906 C 117.425781 138.109375 112.082031 140.136719 106.265625 140.136719 C 101.9375 140.136719 97.875 139.019531 94.324219 137.070312 C 98.5625 133.707031 103.910156 131.6875 109.726562 131.6875 C 114.042969 131.6875 118.117188 132.800781 121.664062 134.753906 Z M 93.519531 94.09375 C 96.027344 104.6875 103.691406 113.289062 113.710938 117.132812 C 114.574219 119.800781 115.78125 122.308594 117.265625 124.625 C 114.835938 124.050781 112.320312 123.71875 109.726562 123.71875 C 101.371094 123.71875 93.757812 126.878906 87.960938 132.035156 C 83.925781 127.617188 81.441406 121.777344 81.441406 115.339844 C 81.441406 106.324219 86.296875 98.4375 93.519531 94.09375 Z M 118.546875 62.726562 C 118.386719 64.042969 118.277344 65.371094 118.277344 66.730469 C 118.277344 72.675781 119.890625 78.238281 122.675781 83.058594 C 121.78125 83.886719 120.921875 84.75 120.125 85.671875 C 115.90625 83.695312 111.222656 82.5625 106.265625 82.5625 C 104.417969 82.5625 102.621094 82.753906 100.863281 83.050781 C 102.242188 73.3125 109.28125 65.402344 118.546875 62.726562 Z M 151.070312 41.925781 C 164.761719 41.925781 175.894531 53.054688 175.894531 66.730469 L 175.894531 96.40625 C 172.730469 87.25 165.628906 79.949219 156.605469 76.488281 C 152.777344 64.660156 142.394531 55.78125 129.75 54.09375 C 134.085938 46.820312 142.011719 41.925781 151.070312 41.925781 Z M 151.070312 206.15625 C 150.941406 206.15625 150.816406 206.140625 150.683594 206.132812 C 154.867188 201.085938 157.535156 194.761719 158.074219 187.847656 C 166.398438 184.183594 172.898438 177.164062 175.894531 168.511719 L 175.894531 181.351562 C 175.894531 195.023438 164.761719 206.15625 151.070312 206.15625 Z M 125.410156 160.476562 C 128.398438 160.476562 131.25 161.035156 133.902344 162 C 132.78125 166.914062 130.207031 171.257812 126.652344 174.578125 C 123.265625 170.902344 120.980469 166.207031 120.320312 161.007812 C 121.964844 160.65625 123.664062 160.476562 125.410156 160.476562 Z M 128.027344 139.789062 C 131.488281 143.574219 133.808594 148.414062 134.390625 153.785156 C 131.53125 152.96875 128.527344 152.503906 125.410156 152.503906 C 123.765625 152.503906 122.167969 152.664062 120.589844 152.898438 C 121.546875 148.195312 123.847656 143.988281 127.054688 140.660156 C 127.386719 140.386719 127.699219 140.082031 128.027344 139.789062 Z M 158.277344 127.9375 C 154.191406 126.113281 149.675781 125.070312 144.910156 125.070312 C 142.265625 125.070312 139.707031 125.417969 137.242188 126.011719 C 138.292969 122.960938 138.914062 119.714844 139.015625 116.335938 C 150.3125 111.15625 158.203125 99.769531 158.203125 86.542969 C 158.203125 86.414062 158.183594 86.285156 158.183594 86.144531 C 165.113281 90.546875 169.734375 98.273438 169.734375 107.070312 C 169.734375 115.832031 165.15625 123.527344 158.277344 127.9375 Z M 165.628906 132.457031 C 170.304688 128.644531 173.878906 123.558594 175.894531 117.738281 L 175.894531 147.179688 C 173.878906 141.359375 170.304688 136.273438 165.628906 132.457031 Z M 150 182.121094 C 148.359375 182.460938 146.65625 182.652344 144.910156 182.652344 C 140.585938 182.652344 136.519531 181.53125 132.972656 179.578125 C 136.6875 175.84375 139.5 171.230469 141.085938 166.070312 C 145.886719 169.992188 149.171875 175.675781 150 182.121094 Z M 157.601562 179.121094 C 155.839844 169.914062 150.210938 162.089844 142.484375 157.34375 C 142.488281 157.0625 142.527344 156.777344 142.527344 156.488281 C 142.527344 150.027344 140.621094 144.019531 137.378906 138.9375 C 139.800781 139.511719 142.316406 139.847656 144.910156 139.847656 C 149.675781 139.847656 154.191406 138.808594 158.277344 136.976562 C 165.15625 141.386719 169.734375 149.082031 169.734375 157.84375 C 169.734375 166.882812 164.855469 174.789062 157.601562 179.121094 Z M 144.910156 82.273438 C 146.621094 82.273438 148.292969 82.445312 149.90625 82.773438 C 150.097656 84.007812 150.226562 85.257812 150.226562 86.542969 C 150.226562 88.230469 150.050781 89.878906 149.734375 91.472656 C 143.695312 91.144531 138.238281 88.667969 134.105469 84.777344 C 137.378906 83.1875 141.035156 82.273438 144.910156 82.273438 Z M 126.253906 66.730469 C 126.253906 65.046875 126.429688 63.402344 126.746094 61.8125 C 135.453125 62.277344 142.976562 67.230469 147.027344 74.410156 C 146.320312 74.359375 145.625 74.300781 144.910156 74.300781 C 139.203125 74.300781 133.835938 75.769531 129.15625 78.339844 C 127.308594 74.875 126.253906 70.921875 126.253906 66.730469 Z M 127.480469 89.445312 C 132.5 94.644531 139.210938 98.183594 146.722656 99.1875 C 144.621094 102.71875 141.675781 105.675781 138.148438 107.796875 C 136.460938 100.675781 132.476562 94.449219 126.988281 89.960938 C 127.15625 89.792969 127.308594 89.609375 127.480469 89.445312 Z M 112.140625 107.476562 C 106.429688 103.851562 102.300781 97.972656 101.023438 91.101562 C 102.714844 90.738281 104.46875 90.535156 106.265625 90.535156 C 109.578125 90.535156 112.742188 91.195312 115.636719 92.378906 C 113.40625 96.804688 112.117188 101.789062 112.117188 107.070312 C 112.117188 107.210938 112.132812 107.339844 112.140625 107.476562 Z M 120.09375 107.070312 C 120.09375 103.316406 120.960938 99.769531 122.457031 96.578125 C 126.632812 100.183594 129.597656 105.144531 130.644531 110.785156 C 128.957031 111.148438 127.207031 111.351562 125.410156 111.351562 C 123.695312 111.351562 122.027344 111.183594 120.414062 110.847656 C 120.21875 109.613281 120.09375 108.355469 120.09375 107.070312 Z M 123.292969 119.21875 C 124 119.261719 124.695312 119.320312 125.410156 119.320312 C 127.25 119.320312 129.046875 119.132812 130.804688 118.84375 C 130.457031 121.304688 129.742188 123.652344 128.726562 125.832031 C 126.558594 123.957031 124.710938 121.726562 123.292969 119.21875 Z M 112.714844 164 C 113.796875 169.675781 116.351562 174.824219 119.964844 179.0625 C 116.835938 180.480469 113.375 181.292969 109.726562 181.292969 C 106.730469 181.292969 103.878906 180.734375 101.226562 179.765625 C 102.753906 173.074219 106.984375 167.429688 112.714844 164 Z M 126.550781 184.984375 C 131.792969 188.535156 138.113281 190.621094 144.910156 190.621094 C 146.554688 190.621094 148.148438 190.460938 149.726562 190.222656 C 148.597656 195.789062 145.59375 200.664062 141.414062 204.203125 C 133.589844 200.886719 127.832031 193.652344 126.550781 184.984375 Z M 151.070312 214.128906 C 169.152344 214.128906 183.871094 199.421875 183.871094 181.351562 L 183.871094 66.730469 C 183.871094 48.660156 169.152344 33.953125 151.070312 33.953125 C 137.449219 33.953125 125.75 42.296875 120.800781 54.132812 C 105.21875 56.332031 93.140625 69.5 92.652344 85.558594 C 81.351562 90.730469 73.464844 102.121094 73.464844 115.339844 C 73.464844 124.140625 76.976562 132.132812 82.648438 138.023438 C 79.039062 143.285156 76.925781 149.640625 76.925781 156.488281 C 76.925781 168.308594 83.234375 178.65625 92.652344 184.425781 C 92.636719 184.707031 92.609375 184.992188 92.609375 185.28125 C 92.609375 203.351562 107.320312 218.050781 125.410156 218.050781 C 131.792969 218.050781 137.734375 216.191406 142.78125 213.023438 C 145.433594 213.71875 148.207031 214.128906 151.070312 214.128906 " fill-opacity="1" fill-rule="nonzero"/></g><g clip-path="url(#e41dc2ffdf)"><path fill="#f1465f" d="M 281.367188 175.699219 C 278.558594 166.542969 271.832031 159.085938 263.160156 155.273438 C 262.941406 152.453125 262.359375 149.742188 261.464844 147.164062 C 263.929688 147.761719 266.496094 148.109375 269.144531 148.109375 C 275.535156 148.109375 281.480469 146.25 286.535156 143.074219 C 289.035156 146.945312 290.503906 151.546875 290.503906 156.488281 C 290.503906 164.226562 286.9375 171.148438 281.367188 175.699219 Z M 250.003906 210.078125 C 247.277344 210.078125 244.652344 209.621094 242.195312 208.808594 C 249.414062 204.101562 254.6875 196.644531 256.46875 187.925781 C 259.398438 188.785156 262.480469 189.261719 265.679688 189.261719 C 268.800781 189.261719 271.8125 188.796875 274.667969 187.984375 C 273.316406 200.394531 262.773438 210.078125 250.003906 210.078125 Z M 199.511719 181.351562 L 199.511719 168.519531 C 202.507812 177.171875 209.007812 184.183594 217.335938 187.847656 C 217.871094 194.761719 220.539062 201.085938 224.722656 206.132812 C 224.589844 206.140625 224.46875 206.15625 224.335938 206.15625 C 210.652344 206.15625 199.511719 195.023438 199.511719 181.351562 Z M 224.335938 41.925781 C 233.402344 41.925781 241.324219 46.820312 245.65625 54.09375 C 233.011719 55.78125 222.628906 64.660156 218.796875 76.488281 C 209.777344 79.949219 202.683594 87.25 199.511719 96.398438 L 199.511719 66.730469 C 199.511719 53.054688 210.652344 41.925781 224.335938 41.925781 Z M 274.546875 83.050781 C 272.785156 82.753906 270.980469 82.5625 269.144531 82.5625 C 264.183594 82.5625 259.492188 83.695312 255.277344 85.671875 C 254.484375 84.757812 253.625 83.886719 252.730469 83.058594 C 255.515625 78.238281 257.128906 72.675781 257.128906 66.730469 C 257.128906 65.371094 257.019531 64.042969 256.859375 62.726562 C 266.125 65.394531 273.15625 73.3125 274.546875 83.050781 Z M 281.082031 137.070312 C 277.535156 139.019531 273.46875 140.136719 269.144531 140.136719 C 263.324219 140.136719 257.980469 138.109375 253.742188 134.753906 C 257.289062 132.808594 261.355469 131.6875 265.679688 131.6875 C 271.5 131.6875 276.84375 133.707031 281.082031 137.070312 Z M 293.96875 115.339844 C 293.96875 121.769531 291.480469 127.617188 287.445312 132.035156 C 281.648438 126.878906 274.035156 123.71875 265.679688 123.71875 C 263.085938 123.71875 260.570312 124.050781 258.140625 124.625 C 259.625 122.308594 260.832031 119.800781 261.691406 117.132812 C 271.714844 113.296875 279.375 104.6875 281.890625 94.09375 C 289.109375 98.4375 293.96875 106.324219 293.96875 115.339844 Z M 250.003906 152.503906 C 246.886719 152.503906 243.875 152.96875 241.007812 153.785156 C 241.597656 148.414062 243.917969 143.574219 247.378906 139.789062 C 247.707031 140.082031 248.019531 140.386719 248.355469 140.660156 C 251.558594 143.988281 253.859375 148.195312 254.8125 152.898438 C 253.238281 152.664062 251.640625 152.503906 250.003906 152.503906 Z M 248.753906 174.578125 C 245.199219 171.257812 242.617188 166.914062 241.496094 162 C 244.160156 161.035156 247.015625 160.476562 250.003906 160.476562 C 251.75 160.476562 253.445312 160.65625 255.085938 161 C 254.425781 166.199219 252.136719 170.902344 248.753906 174.578125 Z M 234.320312 166.070312 C 235.898438 171.230469 238.71875 175.84375 242.425781 179.578125 C 238.886719 181.53125 234.816406 182.652344 230.496094 182.652344 C 228.75 182.652344 227.046875 182.460938 225.40625 182.121094 C 226.234375 175.675781 229.519531 169.992188 234.320312 166.070312 Z M 209.777344 132.457031 C 205.105469 136.273438 201.527344 141.359375 199.511719 147.164062 L 199.511719 117.753906 C 201.527344 123.558594 205.105469 128.644531 209.777344 132.457031 Z M 236.390625 116.335938 C 236.496094 119.714844 237.105469 122.960938 238.167969 126.011719 C 235.703125 125.417969 233.140625 125.070312 230.496094 125.070312 C 225.734375 125.070312 221.21875 126.113281 217.128906 127.9375 C 210.246094 123.527344 205.671875 115.832031 205.671875 107.070312 C 205.671875 98.273438 210.289062 90.546875 217.226562 86.144531 C 217.226562 86.285156 217.203125 86.414062 217.203125 86.542969 C 217.203125 99.769531 225.09375 111.15625 236.390625 116.335938 Z M 230.496094 82.273438 C 234.371094 82.273438 238.027344 83.195312 241.300781 84.785156 C 237.171875 88.667969 231.710938 91.144531 225.675781 91.472656 C 225.355469 89.878906 225.179688 88.230469 225.179688 86.542969 C 225.179688 85.257812 225.3125 84.007812 225.5 82.773438 C 227.113281 82.445312 228.78125 82.273438 230.496094 82.273438 Z M 246.679688 125.832031 C 245.65625 123.652344 244.949219 121.304688 244.59375 118.84375 C 246.363281 119.132812 248.15625 119.320312 250.003906 119.320312 C 250.71875 119.320312 251.40625 119.261719 252.105469 119.21875 C 250.695312 121.726562 248.847656 123.957031 246.679688 125.832031 Z M 259.769531 92.378906 C 262.664062 91.195312 265.828125 90.535156 269.144531 90.535156 C 270.9375 90.535156 272.691406 90.738281 274.386719 91.101562 C 273.097656 97.980469 268.976562 103.851562 263.265625 107.476562 C 263.265625 107.339844 263.289062 107.210938 263.289062 107.070312 C 263.289062 101.789062 262.003906 96.804688 259.769531 92.378906 Z M 255.3125 107.070312 C 255.3125 108.355469 255.179688 109.613281 254.992188 110.847656 C 253.378906 111.183594 251.714844 111.351562 250.003906 111.351562 C 248.199219 111.351562 246.449219 111.148438 244.753906 110.785156 C 245.808594 105.144531 248.769531 100.183594 252.949219 96.578125 C 254.445312 99.769531 255.3125 103.316406 255.3125 107.070312 Z M 248.410156 89.960938 C 242.929688 94.449219 238.945312 100.675781 237.257812 107.789062 C 233.730469 105.675781 230.785156 102.71875 228.683594 99.1875 C 236.195312 98.183594 242.90625 94.644531 247.925781 89.445312 C 248.09375 89.609375 248.253906 89.792969 248.410156 89.960938 Z M 249.152344 66.730469 C 249.152344 70.921875 248.097656 74.875 246.253906 78.347656 C 241.570312 75.769531 236.203125 74.300781 230.496094 74.300781 C 229.777344 74.300781 229.085938 74.359375 228.378906 74.410156 C 232.429688 67.230469 239.957031 62.285156 248.660156 61.8125 C 248.980469 63.402344 249.152344 65.046875 249.152344 66.730469 Z M 205.671875 157.84375 C 205.671875 149.082031 210.246094 141.386719 217.128906 136.976562 C 221.21875 138.808594 225.734375 139.847656 230.496094 139.847656 C 233.089844 139.847656 235.601562 139.511719 238.027344 138.9375 C 234.785156 144.019531 232.878906 150.027344 232.878906 156.488281 C 232.878906 156.777344 232.917969 157.0625 232.925781 157.351562 C 225.195312 162.089844 219.558594 169.914062 217.800781 179.121094 C 210.550781 174.789062 205.671875 166.882812 205.671875 157.84375 Z M 233.992188 204.203125 C 229.8125 200.664062 226.808594 195.789062 225.683594 190.222656 C 227.253906 190.460938 228.851562 190.621094 230.496094 190.621094 C 237.292969 190.621094 243.613281 188.535156 248.855469 184.984375 C 247.574219 193.652344 241.824219 200.886719 233.992188 204.203125 Z M 274.183594 179.765625 C 271.527344 180.734375 268.671875 181.292969 265.679688 181.292969 C 262.03125 181.292969 258.570312 180.480469 255.445312 179.0625 C 259.058594 174.824219 261.601562 169.675781 262.6875 164 C 268.414062 167.421875 272.65625 173.074219 274.183594 179.765625 Z M 301.945312 115.339844 C 301.945312 102.121094 294.054688 90.730469 282.746094 85.558594 C 282.265625 69.5 270.191406 56.332031 254.605469 54.132812 C 249.65625 42.296875 237.957031 33.953125 224.335938 33.953125 C 206.253906 33.953125 191.535156 48.660156 191.535156 66.730469 L 191.535156 181.351562 C 191.535156 199.421875 206.253906 214.128906 224.335938 214.128906 C 227.207031 214.128906 229.972656 213.71875 232.625 213.023438 C 237.671875 216.191406 243.621094 218.050781 250.003906 218.050781 C 268.089844 218.050781 282.796875 203.351562 282.796875 185.28125 C 282.796875 184.992188 282.761719 184.707031 282.753906 184.425781 C 292.171875 178.65625 298.484375 168.308594 298.484375 156.488281 C 298.484375 149.640625 296.367188 143.285156 292.761719 138.023438 C 298.429688 132.132812 301.945312 124.140625 301.945312 115.339844 " fill-opacity="1" fill-rule="nonzero"/></g><path fill="#f1465f" d="M 163.453125 251.792969 C 163.132812 250.40625 162.878906 248.878906 162.203125 247.464844 C 161.140625 244.503906 159.417969 241.5625 157.324219 238.953125 C 155.214844 236.351562 152.734375 234.09375 150.199219 232.328125 C 147.652344 230.570312 145.101562 229.238281 142.816406 228.382812 C 138.265625 226.558594 134.949219 226.492188 134.949219 226.492188 C 134.949219 226.492188 137.625 228.347656 141.238281 231.171875 C 143.042969 232.597656 145.0625 234.289062 147.113281 236.171875 C 149.101562 238.105469 151.222656 240.144531 152.953125 242.464844 C 153.90625 243.570312 154.785156 244.714844 155.519531 245.9375 C 156.335938 247.105469 157.0625 248.304688 157.703125 249.511719 C 158.988281 251.902344 160.117188 254.265625 160.820312 256.398438 C 161.664062 258.515625 162.167969 260.382812 162.542969 261.710938 C 162.953125 263.042969 163.234375 263.824219 163.234375 263.824219 C 163.234375 263.824219 163.425781 263.054688 163.65625 261.652344 C 163.90625 260.25 164.21875 258.214844 163.976562 255.753906 C 163.949219 254.511719 163.839844 253.167969 163.453125 251.792969 " fill-opacity="1" fill-rule="nonzero"/><path fill="#f1465f" d="M 225.210938 232.328125 C 222.671875 234.09375 220.191406 236.351562 218.074219 238.953125 C 215.988281 241.5625 214.265625 244.503906 213.203125 247.464844 C 212.527344 248.878906 212.265625 250.40625 211.953125 251.792969 C 211.566406 253.167969 211.453125 254.511719 211.429688 255.753906 C 211.183594 258.214844 211.496094 260.25 211.75 261.652344 C 211.984375 263.054688 212.171875 263.824219 212.171875 263.824219 C 212.171875 263.824219 212.457031 263.042969 212.863281 261.710938 C 213.242188 260.382812 213.742188 258.515625 214.585938 256.398438 C 215.289062 254.265625 216.410156 251.902344 217.703125 249.511719 C 218.34375 248.304688 219.066406 247.105469 219.886719 245.9375 C 220.613281 244.714844 221.5 243.570312 222.445312 242.464844 C 224.183594 240.144531 226.300781 238.105469 228.292969 236.171875 C 230.34375 234.289062 232.363281 232.597656 234.167969 231.171875 C 237.78125 228.347656 240.457031 226.492188 240.457031 226.492188 C 240.457031 226.492188 237.140625 226.558594 232.589844 228.382812 C 230.304688 229.238281 227.746094 230.570312 225.210938 232.328125 " fill-opacity="1" fill-rule="nonzero"/><path fill="#f1465f" d="M 198.441406 231.726562 L 198.441406 225.882812 C 198.441406 224.699219 198.703125 223.785156 199.207031 223.246094 C 199.636719 222.789062 200.179688 222.6875 200.550781 222.6875 C 201.636719 222.6875 203.234375 223.542969 203.234375 225.882812 C 203.234375 228.820312 201.273438 230.636719 198.441406 231.726562 Z M 176.957031 231.726562 C 174.128906 230.636719 172.164062 228.820312 172.164062 225.882812 C 172.164062 223.542969 173.773438 222.6875 174.847656 222.6875 C 175.226562 222.6875 175.765625 222.789062 176.191406 223.246094 C 176.695312 223.785156 176.957031 224.699219 176.957031 225.882812 Z M 200.550781 217.085938 C 198.441406 217.085938 196.507812 217.914062 195.105469 219.425781 C 194.066406 220.535156 192.828125 222.5625 192.828125 225.882812 L 192.828125 232.980469 C 189.433594 233.359375 185.972656 233.359375 182.570312 232.980469 L 182.570312 225.882812 C 182.570312 222.5625 181.339844 220.535156 180.300781 219.425781 C 178.890625 217.914062 176.957031 217.085938 174.847656 217.085938 C 170.777344 217.085938 166.550781 220.375 166.550781 225.882812 C 166.550781 229.558594 168.136719 235.132812 176.957031 237.597656 L 176.957031 262.265625 L 182.570312 262.265625 L 182.570312 238.613281 C 185.683594 238.917969 189.71875 238.925781 192.828125 238.613281 L 192.828125 262.265625 L 198.441406 262.265625 L 198.441406 237.597656 C 207.261719 235.132812 208.847656 229.558594 208.847656 225.882812 C 208.847656 220.375 204.632812 217.085938 200.550781 217.085938 " fill-opacity="1" fill-rule="nonzero"/></svg>